<?xml version="1.0" encoding="UTF-8"?><svg id="Layer_2" xmlns="http://www.w3.org/2000/svg" viewBox="0 0 423.8115 30.293"><g id="Components"><g id="d8b6b54a-2005-4a7e-9b71-718268423d38_16"><path d="M20.3027,20.2625h-1.2891l-.8057.1611c0,3.2588-.6445,5.4072-1.9336,6.4453-.4658,0-2.1309.0537-4.9951.1611-1.0029,0-1.9697-.1074-2.9004-.3223V8.822l-.1611-1.1279c.1074-1.1455.376-2.3271.8057-3.5449,2.041,0,3.0615-.4297,3.0615-1.2891v-1.4502c-.1436-.3223-.3047-.4834-.4834-.4834H.4834c-.3223.1436-.4834.3047-.4834.4834v1.4502c0,.3584.1611.6807.4834.9668,1.9336.2148,2.9004.5908,2.9004,1.1279v21.4307l-.1611.3223c-2.1484.4658-3.2227.8418-3.2227,1.1279v1.9336c.1787.3223.3398.4834.4834.4834h20.3027c.3936,0,.6621-2.3096.8057-6.9287,0-2.041-.4297-3.0615-1.2891-3.0615Z" style="fill:#c2c5c7; stroke-width:0px;"/><path d="M226.4883,16.073c0-.4297-1.4502-.6445-4.3506-.6445h-3.2227c-2.1484.1436-3.2227.4121-3.2227.8057v.6445c0,.9668.2686,1.4502.8057,1.4502.6445,0,1.4502.376,2.417,1.1279v5.1562l-.1611,1.9336h-3.0615c-5.8008,0-8.7012-3.2227-8.7012-9.668v-1.4502c0-2.2559.376-4.6191,1.1279-7.0898.8594-3.1152,3.0615-4.6729,6.6064-4.6729h2.0947c.9307.7881,1.6289,1.54,2.0947,2.2559.501,1.8262.877,2.7393,1.1279,2.7393h.1611c1.79,0,3.1328-.8594,4.0283-2.5781v-.4834c0-.3936-.1611-1.0918-.4834-2.0947-.8955-2.2559-3.4199-3.3838-7.5732-3.3838h-3.3838c-3.4736.8955-5.7295,1.916-6.7676,3.0615-3.0078,3.6885-4.5117,7.1797-4.5117,10.4736,0,.5371.0537.8057.1611.8057.1787,4.4404.501,7.0186.9668,7.7344.501,1.54,1.8437,3.3125,4.0283,5.3174,2.9717,1.8262,5.8184,2.7393,8.54,2.7393h1.1279c2.3633,0,4.3506-.4297,5.9619-1.2891,1.1816-.3936,1.7725-.877,1.7725-1.4502v-7.7344l.1611-.3223c1.6113-.8232,2.417-1.3066,2.417-1.4502v-.1611c0-.4297-.0537-1.0205-.1611-1.7725Z" style="fill:#c2c5c7; stroke-width:0px;"/><path d="M290.7588,21.8738c-.5732,0-1.0566.0537-1.4502.1611-.6807,0-1.1641,1.0742-1.4502,3.2227,0,1.0029-1.3428,1.6475-4.0283,1.9336-1.7549-.1074-3.0977-.1611-4.0283-.1611-.6445,0-1.0205-.8594-1.1279-2.5781v-7.8955l1.6113.1611h3.3838c1.79,0,2.8643.3223,3.2227.9668h.8057c.4297-.1787.6445-.5547.6445-1.1279v-1.9336c0-1.8262-.2148-2.7393-.6445-2.7393h-.9668c-.6807.9668-1.4863,1.4502-2.417,1.4502h-5.6396c0-1.3604-.0537-3.4551-.1611-6.2842,0-.2861.1074-1.3066.3223-3.0615h4.0283c2.0049,0,3.3477.6445,4.0283,1.9336.2861,1.9697.501,3.0977.6445,3.3838,2.041,0,3.0615-.376,3.0615-1.1279-.1074-.1787-.1611-.3936-.1611-.6445V3.3435c-.1436-1.6826-.4121-2.5957-.8057-2.7393h-.1611l-.4834.3223h-16.4355c-1.1104,0-1.916.1611-2.417.4834,0,1.8262,1.1279,2.9004,3.3838,3.2227v10.1514c0,2.4707.0537,6.0156.1611,10.6348,0,.0361-.2148.5195-.6445,1.4502-1.9336.3584-2.9004.6807-2.9004.9668,0,1.6113.2148,2.417.6445,2.417h18.6914c.9307,0,1.6289-.1611,2.0947-.4834.1074-2.542.1611-3.9385.1611-4.1895,0-2.4707-.3223-3.7061-.9668-3.7061Z" style="fill:#c2c5c7; stroke-width:0px;"/><path d="M352.1289,21.8738h-1.4502l-.4834.3223c-.5732,2.2559-1.1104,3.3838-1.6113,3.3838h-8.0566v-.1611l.4834-.6445c.6084-.501,2.2734-2.3809,4.9951-5.6396,3.8672-3.8311,5.8008-8.3965,5.8008-13.6963-1.4326-3.5449-3.8496-5.3174-7.251-5.3174h-.4834c-2.1846,0-4.3867.8594-6.6064,2.5781-.8955,0-1.6475,1.6113-2.2559,4.834,0,2.041.6445,3.0615,1.9336,3.0615h.3223c.501,0,1.0381-.1611,1.6113-.4834,1.8975-3.7598,3.5088-5.6396,4.834-5.6396h.6445c1.0381,0,1.8975.9668,2.5781,2.9004v1.1279c0,2.1846-1.5039,5.2461-4.5117,9.1846-1.8623,2.292-2.9365,3.6885-3.2227,4.1895-1.6475,1.6475-2.9365,3.0977-3.8672,4.3506v1.1279c0,1.9336.2148,2.9004.6445,2.9004h16.2744l.3223-.1611c.1074-2.4346.1611-3.9385.1611-4.5117,0-2.4707-.2686-3.7061-.8057-3.7061Z" style="fill:#c2c5c7; stroke-width:0px;"/><path d="M86.5469,9.3457c-1.8623-6.123-5.7832-9.1846-11.7627-9.1846h-.6445l-.8057-.1611v.1611c-2.3994.3223-4.0645.8057-4.9951,1.4502-2.3633,1.9697-3.5449,3.2051-3.5449,3.7061-1.6113,1.7549-2.417,5.2998-2.417,10.6348,0,1.4326.2686,3.4199.8057,5.9619,2.1484,5.5859,6.1768,8.3789,12.085,8.3789h.9668c1.0381,0,2.4346-.4297,4.1895-1.2891,4.5117-3.4375,6.7676-7.7881,6.7676-13.0518v-2.0947c0-1.0381-.2148-2.542-.6445-4.5117ZM81.7939,13.1323c0,2.1846-.1611,4.5479-.4834,7.0898-.6807,4.5117-2.8291,6.7676-6.4453,6.7676h-.6445c-.251,0-.7344-.1074-1.4502-.3223-3.3301-1.8975-4.9951-5.6572-4.9951-11.2793v-1.6113c0-3.4014.9668-6.3555,2.9004-8.8623.6445-.752,2.0947-1.2891,4.3506-1.6113,0,.2148.376.3223,1.1279.3223,3.7598,1.3252,5.6396,4.2256,5.6396,8.7012v.8057Z" style="fill:#c2c5c7; stroke-width:0px;"/><path d="M155.6113,5.4382c-1.8623-3.2227-6.5889-4.834-14.1797-4.834-2.8291.1074-5.3535.1611-7.5732.1611-.3223,0-.4834.1074-.4834.3223v2.417c2.0049.3584,3.1328.6807,3.3838.9668,0,2.9365.0537,8.791.1611,17.5635,0,.8955-.1611,2.1846-.4834,3.8672,0,.6807-1.0205,1.1641-3.0615,1.4502v1.2891c0,.5732.1611,1.0566.4834,1.4502,3.4014.1074,5.9258.1611,7.5732.1611h3.0615c3.1865,0,5.7109-.5371,7.5732-1.6113,3.9746-3.0791,5.9619-7.3223,5.9619-12.7295v-2.0947c0-2.7568-.8057-5.5498-2.417-8.3789ZM151.8911,22.9211c-1.2178,2.793-3.9033,4.1895-8.0566,4.1895h-1.6113V4.552c0-.1787.1074-.2861.3223-.3223,2.4346,0,4.3682.2148,5.8008.6445,3.2227,2.1484,4.834,6.0156,4.834,11.6016,0,2.292-.4297,4.4404-1.2891,6.4453Z" style="fill:#c2c5c7; stroke-width:0px;"/><path d="M421.2334,26.5466c-.9668-2.0049-3.0078-7.4297-6.123-16.2744-1.3252-5.7646-2.5068-9.041-3.5449-9.8291h-.1611c-.251.2148-.5195.3223-.8057.3223-2.292,0-3.6348,1.665-4.0283,4.9951-3.2227,9.8115-5.8008,16.7939-7.7344,20.9473l-2.417.6445v1.2891c0,.5732.1611,1.0566.4834,1.4502,2.9717.1074,4.9053.1611,5.8008.1611,2.5781,0,3.8672-.3223,3.8672-.9668v-.3223c0-1.4678-1.0742-2.3271-3.2227-2.5781v-.3223c.9668-3.6523,1.5576-5.4785,1.7725-5.4785h8.54c.1787.0361.7158,1.4863,1.6113,4.3506,0,.251-.0537.8418-.1611,1.7725v.1611c-1.8262,0-2.7393.2686-2.7393.8057v2.0947l.1611.3223c2.7568.1074,4.9053.1611,6.4453.1611h1.7725c1.6826,0,2.7031-.2686,3.0615-.8057v-.3223c0-1.3604-.8594-2.2197-2.5781-2.5781ZM413.3379,18.0872h-6.4453c2.1484-5.2275,3.2227-8.5039,3.2227-9.8291h.1611c.2148,1.1104.4297,1.916.6445,2.417,1.4678,3.6885,2.2734,6.1055,2.417,7.251v.1611Z" style="fill:#c2c5c7; stroke-width:0px;"/></g></g></svg>