<?xml version="1.0" encoding="UTF-8"?><svg id="Layer_2" xmlns="http://www.w3.org/2000/svg" viewBox="0 0 393.3295 360.9194"><g id="Components"><g id="_62351d2a-2c46-4197-940d-7c96ba75f46c_16"><path d="M69.7499,236.0967c-.0108-4.5817-.0222-9.1636.035-13.7451.0489-3.9167-.8492-9.5228,1.4721-12.9241.7975-1.1685,2.5333-1.4809,3.7117-.8494,1.1334.6073,1.683,2.2753,1.1576,3.63-.1489.384-.3573.7811-.6418,1.0707-1.9309,1.9658-2.3806,4.5135-2.7591,7.0626-.6216,4.1861-.1319,8.3572.2935,12.5279.3291,3.2259,1.9993,5.5944,4.6215,7.3401,1.4452.9621,2.9357,1.8714,4.4727,2.6768,2.2197,1.1631,3.1051,3.0168,3.2064,5.4167.1525,3.6114-.1989,7.1849-.7738,10.7363-.9959,6.1528-2.0903,12.288-4.1767,18.1913-.2987.845-.6607,1.6717-1.0491,2.48-.517,1.0759-1.4009,1.7734-2.4941,2.2197-1.7883.7301-3.4463.2947-4.2764-1.4482-.764-1.6041-1.3936-3.3354-1.7015-5.078-.4359-2.4671-.6756-4.9925-.7309-7.4989-.2384-10.6077-.3422-21.2071-.3673-31.8085ZM73.1615,241.1115c-.0513.7108-.1205,1.1796-.1136,1.6474.1306,8.8692.203,17.7401.4507,26.6061.0697,2.4946.625,4.9802,1.0307,7.458.1207.7372.3062,1.5494,1.3825,2.0027.3111-.5085.7506-.9939.9312-1.5616.8353-2.6243,1.7301-5.2406,2.3614-7.9168,1.5009-6.3619,2.7787-12.7691,2.7974-19.3497q.0097-3.4079-2.866-5.0985c-.155-.0914-.3092-.1843-.461-.2808-1.7584-1.1177-3.5163-2.2363-5.5134-3.5067Z" style="fill:#c2c5c7; stroke-width:0px;"/><path d="M324.5275,236.3716c.0108-4.5817.0222-9.1636-.035-13.7451-.0489-3.9167.8492-9.5228-1.4721-12.9241-.7975-1.1685-2.5333-1.4809-3.7117-.8494-1.1334.6073-1.683,2.2753-1.1576,3.63.1489.384.3573.7811.6418,1.0707,1.9309,1.9658,2.3806,4.5135,2.7591,7.0626.6216,4.1861.1319,8.3572-.2935,12.5279-.3291,3.2259-1.9993,5.5944-4.6215,7.3401-1.4452.9621-2.9357,1.8714-4.4727,2.6768-2.2197,1.1631-3.1051,3.0168-3.2064,5.4167-.1525,3.6114.1989,7.1849.7738,10.7363.9959,6.1528,2.0903,12.288,4.1767,18.1913.2987.845.6607,1.6717,1.0491,2.48.517,1.0759,1.4009,1.7734,2.4941,2.2197,1.7883.7301,3.4463.2947,4.2764-1.4482.764-1.6041,1.3936-3.3354,1.7015-5.078.4359-2.4671.6756-4.9925.7309-7.4989.2384-10.6077.3422-21.2071.3673-31.8085ZM321.1159,241.3864c.0513.7108.1205,1.1796.1136,1.6474-.1306,8.8692-.203,17.7401-.4507,26.6061-.0697,2.4946-.625,4.9802-1.0307,7.458-.1207.7372-.3062,1.5494-1.3825,2.0027-.3111-.5085-.7506-.9939-.9312-1.5616-.8353-2.6243-1.7301-5.2406-2.3614-7.9168-1.5009-6.3619-2.7787-12.7691-2.7974-19.3497q-.0097-3.4079,2.866-5.0985c.155-.0914.3092-.1843.461-.2808,1.7584-1.1177,3.5163-2.2363,5.5134-3.5067Z" style="fill:#c2c5c7; stroke-width:0px;"/><path d="M228.7351,263.0859c-.2168-18.8614.3433-37.7318,1.688-56.5464,23.9673.4033,47.9341.8065,71.9014,1.2098l1.3667,22.8673c-4.4468-.0934-8.5317,4.0218-8.4058,8.4681,1.3438-.4073,2.7856-2.5104,4.1299-2.9177,1.0044-.3044,1.9102,1.0872,2.9146.7828-2.9556,46.5052,21.4468,93.7458,61.0825,118.2502,2.9399,1.8178,6.0576,3.5535,9.4893,3.9688,6.4131.7761,12.6733-3.3939,15.9985-8.9321,3.7861-6.3055,4.4033-14.0624,4.4292-21.3219.0063-1.9193-.2227-3.8429-.8379-5.6607-2.8433-8.3973-10.4546-7.6827-17.0195-8.17-15.1768-1.1267-29.4473-11.057-35.4673-25.1088-1.1416-2.6641-1.1943-5.746.2104-8.2812,3.9106-7.0591,14.0029-1.6047,18.5903-6.6542-7.5518-10.2643.5557-27.6981-9.0049-36.123-2.0928-1.8441-4.7588-2.904-6.9971-4.5683-7.8965-5.8712-8.5547-17.2418-8.4922-27.0814.2983-46.9181.5967-93.8362.895-140.7542.0156-2.4464-.0259-5.0798-1.4653-7.058-1.5732-2.1623-4.3789-2.9563-6.9717-3.6111-18.834-4.7571-37.668-9.5142-56.502-14.2714-7.6494-1.9321-15.4507-3.9288-22.0874-8.1955-.4722-.3036-.9546-.5513-1.4429-.7515-5.8809-4.2844-10.4844-10.6617-10.8984-17.8705-.2563-4.454-.3799-10.8514-5.0566-10.821-.8628.0056-1.7036.2784-2.4663.6826l-21.3774,11.3277c-.5127-.0594-.9937-.2064-1.0322-.3685-.3896-1.6326-.5894-3.3267-.6558-5.0079-.0146-.366.7075-.9426,1.1978-1.1085.9565-.3245,2.9893-.6239,2.9893-.6239l1.7393-.1819s.4448-.7866.3462-1.7171c-.4424-4.1562-3.458-7.0306-6.6357-6.934-3.8296.1164-7.665-.0026-11.4976.0199-3.0156.0176-3.4893.3764-3.9863,3.4318-.5601,3.4427-.9551,6.912-1.4536,10.3652-.1694,1.1728-.4663,1.8651-1.0142,2.1915l-21.4668-11.3752c-.7627-.4041-1.603-.677-2.4663-.6826-4.6768-.0304-4.8003,6.3671-5.0566,10.8211-.4561,7.9304-5.9741,14.8671-12.6938,19.1037-6.7192,4.2367-14.5708,6.2298-22.2759,8.1614-18.1431,4.5485-36.2866,9.097-54.4302,13.6454-2.5381.6363-5.2095,1.3461-7.0562,3.1997-2.8169,2.8273-2.8311,7.3165-2.6738,11.3046,1.9048,48.392,1.9194,96.8583.0435,145.2515-.2563,6.6136-.9751,14.0996-6.1934,18.1712-2.4385,1.9029-5.5601,2.7621-8.0137,4.6456-10.3228,7.9242-2.1318,25.8885-9.3154,36.7398,5.272,4.559,15.0415.0924,18.7212,7.9146,1.3398,2.8477,1.1572,6.1919-.2373,9.013-8.3794,16.9496-26.9878,22.2902-44.8569,23.8488-1.1069.0965-3.2217.913-4.1938,1.5446-.1597.1036-.2866.2513-.3838.4148-4.9399,8.3265-5.9629,18.6502-1.7524,27.4154,3.7183,7.7403,10.9141,14.0289,19.4473,15.7051,1.7949.3525,3.6943-.7314,7.103-2.5604,2.4995-1.7789,4.4189-4.0228,5.2778-4.634,2.5771-1.8347,5.0864-3.7647,7.5229-5.7825,16.2642-13.4685,29.2388-30.8043,37.9189-50.0334,4.3418-9.6175,7.6147-19.7214,9.6812-30.0706,1.0322-5.1688,1.7637-10.3981,2.1763-15.6529.2065-2.6287.3335-5.2637.3789-7.9001.0137-.7744.4507-7.5955-.0962-7.6017,1.334.0153,1.5576-1.0618,2.5264-.6998,1.3066.4884,2.9932,2.7625,4.3003,3.251.0728-4.5188-4.0483-8.6738-8.5674-8.6379.3691-7.4969.7388-14.9938,1.1079-22.4908,24.3911-1.1545,48.8262-1.3956,73.2354-.7227.0039,29.2322.0078,58.4643.0117,87.6964.0005,4.0402-.0425,8.1934-.3633,12.2921-.1895,1.3658-.3867,2.7311-.5967,4.0959-.2422,1.5756-.4409,3.1579-.6504,4.7385-1.1587,5.2638-3.1455,10.2056-6.5508,14.4163-2.3359,2.888-5.2334,5.2845-7.8442,7.9221-.2881.2426-.7554.6356-1.0439.8781-.9761.72-1.7158,1.5461-2.2334,2.4752-.2139.3843-.377.7925-.5156,1.2119-.0786.1274-.1631.249-.2402.3776.0386.0027.0776.0038.1162.0064-.1709.6331-.2681,1.3012-.2827,2.0089-.084,3.9586-.0601,7.8898-.0146,11.88.0049.4252-.0063,1.004-.0186,1.4807-.0122.4764.3735.8668.8501.8631.4556-.0035,1.0054-.0101,1.4341-.0229.6328-.0189,1.2676.0206,1.9004.0207,16.0381.0004,32.0752-.002,48.1133-.0034,16.4375.0015,32.875.0038,49.313.0035.6323-.0001,1.2676-.0144,1.8994-.0208.6133-.0062,1.4614-.0472,1.9409-.0729.2065-.011.3638-.1804.3564-.3867-.0156-.4465-.0381-1.2213-.0308-1.8611.0449-3.9835.0679-7.9214-.0146-11.8799-.0244-1.1799-.2622-2.2571-.728-3.2285-.5195-1.0839-1.3228-2.0361-2.4302-2.852-4.3013-3.1702-7.9355-7.0081-11.0415-11.3668-1.3965-1.9595-2.4604-4.0371-3.2031-6.2411-.4697-1.5909-.8218-3.2291-1.0967-4.8892-.1631-1.1949-.3223-2.3906-.4844-3.5858-.1621-1.4707-.2891-2.9438-.4038-4.4024-.9639-12.2344-1.5913-24.495-1.8945-36.7636M52.5652,317.9997c-5.6401,6.5123-12.3101,11.902-18.9355,17.3405-1.6675,1.3689-3.3447,2.7268-4.9839,4.1296-3.9272,3.3614-5.729,7.7411-5.9937,12.8104-.0835,1.5994-.0132,3.2068-.0132,4.8982-.998.3803-1.9912.1956-2.9683-.0692-1.8096-.4906-3.4687-1.2795-4.9785-2.4216-5.2773-3.9913-9.1611-8.9291-10.7144-15.4876-1.4243-6.0153-.3467-11.7402,1.8413-17.3375l.4751-.1203c.8193,1.2297,1.6777,2.4352,2.4507,3.6932,2.9053,4.7296,7.2783,6.7902,12.6655,6.8818,5.6953.0968,10.8188-1.9698,15.6851-4.636,5.7002-3.123,10.8403-7.0609,15.6147-11.4716,1.4795-1.3668,2.9741-2.7175,4.6968-3.8621-1.6133,1.8845-3.2178,3.777-4.8418,5.6522ZM52.362,276.0376c-4.0288-.6956-6.5435-3.2701-8.4258-6.6503-.1963-.3535-.2393-.7979-.3281-1.2056-1.1436-5.2519-1.373-10.5781-.9585-15.9061.1602-2.056.7437-4.14,1.4849-6.0771,1.4624-3.8203,5.0063-5.943,8.9219-5.6227,1.3789.1128,2.6211.5031,3.1216,1.9858.4106,1.2157,1.52,1.1954,2.7207,1.4871.0503.6948.1421,1.2811.1265,1.8644-.084,3.0217-.2646,6.0421-.2617,9.0641.0015,1.3139.1489,2.6199.3247,3.9219.1011.7485.0186,1.3053-.4146,1.9286-.7495,1.0783-1.3437,2.2631-2.0479,3.375-.8916,1.409-2.1802,2.0384-3.8359,1.6738-1.3354-.2941-2.6509-.682-3.9717-1.0416-.2876-.0782-.5557-.2238-.8394-.3194-.8521-.2875-1.6543-.3301-2.2529.51-.5449.765-.6001,1.9771.1177,2.6697,1.5576,1.5032,3.2603,2.7502,5.5234,3.1312,2.4121.4061,4.7725.1298,7.1523-.117.2886-.03.5781-.0482.8872-.0735.0933.2185.2422.3918.2144.5287-.6699,3.2678-3.9692,5.4407-7.2588,4.8729ZM86.3244,248.8625c-.3735,3.8122-.8062,7.626-1.4189,11.4056-.7388,4.5526-1.6118,9.0879-2.5918,13.5948-.4556,2.0956-1.187,4.1538-2.0142,6.137-.4443,1.0649-1.207,2.108-2.0845,2.8601-2.3965,2.0546-5.5137,1.3457-6.8735-1.4907-1.3379-2.7925-1.7114-5.8676-1.9526-8.9487-.4316-5.5123-.5981-11.0417-.5859-16.5709.0293-13.2799.0225-26.5599.1099-39.8393.0132-2.0176.3115-4.0691.7671-6.0382.4658-2.0146,2.1016-3.0112,4.021-2.8452,1.9302.1669,3.3999,1.6022,3.6714,3.6015.0479.3551.0444.7172.0649,1.0761.0747,1.2836-.2686,2.3758-1.3984,3.118-1.2417.8159-1.8271,2.0662-2.1064,3.4396-.5859,2.8805-.959,5.7823-.6401,8.7396.2012,1.8616.27,3.7376.4692,5.5993.335,3.1285,2.2129,5.893,4.9927,7.3666,1.2188.6461,2.4556,1.2574,3.6753,1.901,2.7725,1.4628,4.2031,3.7543,3.895,6.8937ZM165.2546,53.0061c0,44.5466,0,89.0932-.001,133.6398,0,2.722-.0068,2.7298-2.6738,2.73-22.9136.0021-45.8267.002-68.7402.0002-2.6509-.0002-2.5562-.0134-2.7412-2.7079-.3169-4.5995-.7388-9.1925-1.1665-13.7836-.3999-4.2936-.8696-8.5806-1.2979-12.8716-.4404-4.41-.8774-8.8204-1.2959-13.2324-.3003-3.1601-.5732-6.3229-.8491-9.4852-.4482-5.1306-.896-10.2614-1.3306-15.3931-.2881-3.4018-.5298-6.8075-.832-10.2079-.6909-7.7788-1.4648-15.5507-2.0835-23.3353-.2095-2.6387-.3018-5.285-.3604-7.9313-.0903-4.0531-.5273-4.1941,1.8018-4.6351,5.8301-1.1041,11.6763-2.1275,17.4966-3.2822,12.4785-2.4757,24.8296-5.4636,36.8638-9.6347,8.8555-3.0693,17.459-6.7166,25.5615-11.4708.3086-.1809.6377-.33.9683-.4673.0947-.0394.2285.0148.6802.0588v2.0096ZM182.8108,263.0859h-.1475c.0854-21.4557.2642-42.9111.3276-64.3668.1187-40.5366.186-81.0732.2495-121.6099.0068-4.2534-.2822-8.5093-.2056-12.7599.0752-4.1871.1035-8.4045,1.0215-12.5217.52-2.3345,1.0884-4.6843,1.9312-6.9155,1.7397-4.6064,5.1821-7.4454,10.0005-8.5632.5996-.1391,1.23-.1519,1.8345-.035,5.2993,1.0241,8.6987,4.2362,10.5161,9.1177,1.1982,3.2186,2.0435,6.5641,2.1968,9.9818.2769,6.1638.3984,12.3388.4097,18.5095.0435,23.6889.0176,47.3779.0176,71.0668h.0244c0,27.6471-.043,55.2943.0132,82.9412.0479,23.2946.2319,46.5888.2964,69.8834.0132,4.7729-.1816,12.5782-.4268,17.3448-.3047,5.9214-.7012,11.8378-1.918,17.6741-.9351,4.4851-3.689,7.3877-7.6255,9.3022-.0933.0376-.186.0766-.2793.1141-.979.3833-1.9658.6399-2.9175.7438-.1001.0099-.2012.0242-.3003.0304-.167.0123-.3389.0092-.5088.0097-.1738-.0004-.3481.0027-.5181-.0099-.0957-.006-.1934-.0198-.2891-.0292-.9575-.1037-1.9507-.3622-2.936-.7487-.1572-.0634-.3149-.1223-.4707-.1925-.0557-.0242-.1108-.0512-.166-.0761-3.5796-1.6664-6.8628-5.0733-7.5718-8.7315-.522-2.6943-.9951-5.4131-1.3228-8.1412-.0386-.3651-.0835-.7297-.1191-1.095-.0649-.6247-.1245-1.2497-.1709-1.8751-.0171-.2018-.0312-.404-.0479-.6059-1.1445-17.1343-1.0645-34.2868-.9458-51.4396M305.9919,159.3881c-.5498,5.6043-1.1597,11.2029-1.6826,16.8096-.3335,3.5776-.5977,7.1631-.8154,10.7498-.1436,2.3655-.1265,2.4261-2.4697,2.4272-11.3394.005-22.6787.0024-34.0181.0025-11.8794,0-23.7588.0013-35.6382-.0011q-2.6709-.0005-2.6763-2.704c-.0015-44.6767-.0015-89.3534.0024-134.0301,0-.6971.0483-1.3942.0879-2.4542,1.8579,1.0302,3.3213,1.8381,4.7817,2.6523,9.5308,5.3139,19.668,9.171,30.0693,12.3499,14.3521,4.3862,29.0215,7.4075,43.8022,9.9216,1.3525.23,2.7026.4773,4.0366.795,1.1582.2758,1.3599.5283,1.3208,1.8356-.1118,3.7698-.2383,7.5435-.5249,11.3029-.3325,4.3587-.877,8.7008-1.2666,13.0557-.4805,5.3693-.9004,10.744-1.3389,16.1169-.3989,4.896-.7617,9.7952-1.188,14.6888-.4058,4.6546-.8755,9.3036-1.3125,13.9555-.3921,4.1752-.7607,8.3525-1.1699,12.5261ZM325.3664,247.8835c.0435,4.0165.1572,8.0409-.0288,12.0493-.272,5.856-.1445,11.754-1.3389,17.5364-.2632,1.2751-.6831,2.5416-1.2061,3.7383-1.2832,2.9365-4.5161,3.723-6.9492,1.6375-1.5718-1.3473-2.4629-3.1288-2.9619-5.046-.9956-3.8241-1.9463-7.669-2.6772-11.5501-.876-4.6486-1.5337-9.3394-2.2168-14.022-.1807-1.2379-.0854-2.514-.1553-3.7706-.1509-2.7301,1.0386-4.7505,3.3027-6.1583,1.1177-.6946,2.2847-1.3253,3.479-1.8776,3.3174-1.5344,5.249-4.0232,5.7197-7.6948.5518-4.2994.8008-8.5893.1343-12.8942-.3198-2.0628-.9487-3.9118-2.8018-5.2156-1.2202-.8584-1.479-3.0148-.8315-4.6505.7437-1.8779,2.2915-2.9373,4.1509-2.8407,1.6919.0879,2.9253,1.0645,3.4434,2.9144.3052,1.0884.5356,2.2276.582,3.3529.1953,4.7285.3081,9.4603.46,14.4785-.1113,2.9511-.3188,6.1825-.332,9.4147-.0146,3.5324.1899,7.0652.2275,10.5985ZM337.3562,270.886c1.9883.4303,3.9473.1485,5.8916-.1562,2.0396-.3196,3.5811-1.6255,4.9941-3.0141.7178-.7051.6719-1.9005.1367-2.672-.5288-.7627-1.1392-.8605-2.4077-.4623-1.4224.4465-2.8403.9269-4.2905,1.2592-1.9697.4512-3.5347-.1833-4.541-2.0106-.6353-1.153-1.3442-2.2687-1.9165-3.4514-.2153-.4458-.1851-1.033-.187-1.556-.0132-3.5844-.0049-7.1687-.0039-10.7531.0005-1.3635,0-2.7269,0-4.1946.4062-.0265.749-.0728,1.0903-.0663.8979.0168,1.4839-.4079,1.772-1.2362.5151-1.4832,1.7212-1.8943,3.104-1.9998,3.9282-.2996,7.127,1.6528,8.8691,5.4341,1.1963,2.597,1.6304,5.3805,1.7812,8.1996.2446,4.567-.2471,9.0878-1.1108,13.5668-.8657,4.4866-5.9473,8.6181-10.4727,8.4364-.3687-.0148-.9609-.1384-1.3066-.2677-2.4126-.9036-3.6289-2.769-4.5972-5.3454,1.3149.1108,2.2783.0914,3.1948.2897ZM390.5803,336.0286c-.4399,5.4047-2.6328,10.0542-6.2046,14.0588-2.2837,2.5602-4.7729,4.9348-7.9985,6.2879-1.1943.5009-2.5127.7809-3.8027.9555-1.0278.1391-1.3545-.252-1.1743-1.2596.4775-2.6744-.0898-5.2547-.6025-7.8377-.8428-4.2421-3.5303-7.2642-6.7188-9.9274-4.5557-3.8046-9.2192-7.4863-13.6621-11.4172-5.2139-4.6128-9.9888-9.6696-13.9907-15.5157.7871.806,1.5654,1.621,2.3628,2.4167,5.0767,5.0649,10.7134,9.4223,16.8379,13.1375,4.1885,2.541,8.6968,4.3727,13.5381,5.173,5.0156.8292,9.7827.0106,13.5996-3.5547,1.7178-1.6047,2.8955-3.7886,4.3057-5.7191.2759-.3776.4922-.7985.8467-1.3814.2637.5068.4736.8357.6138,1.1919,1.6958,4.308,2.4258,8.7654,2.0498,13.3915Z" style="fill:#c2c5c7; stroke-width:0px;"/></g></g></svg>