<?xml version="1.0" encoding="UTF-8"?><svg id="Layer_2" xmlns="http://www.w3.org/2000/svg" viewBox="0 0 208.8154 41.8945"><g id="Components"><g id="_37a4a8f1-7c34-4baa-beff-5b9b33ae08f4_13"><path d="M28.2285,28.0044h-1.792l-1.1201.2241c0,4.5308-.8965,7.5176-2.6885,8.9614-.6475,0-2.9629.0742-6.9453.2236-1.3945,0-2.7383-.1494-4.0322-.4478V12.0977l-.2246-1.5684c.1494-1.5928.5225-3.2354,1.1201-4.9287,2.8379,0,4.2568-.5972,4.2568-1.792V1.792c-.1992-.4478-.4238-.6719-.6719-.6719H.6719c-.4473.1992-.6719.4233-.6719.6719v2.0166c0,.498.2246.9463.6719,1.3442,2.6885.2983,4.0332.8213,4.0332,1.5679v29.7969l-.2246.4482c-2.9863.6475-4.4805,1.1704-4.4805,1.5679v2.6885c.249.4482.4727.6724.6719.6724h28.2285c.5479,0,.9209-3.2114,1.1201-9.6338,0-2.8374-.5967-4.2563-1.792-4.2563Z" style="fill:#54555a; stroke-width:0px;"/><path d="M114.0039,30.2446h-2.0156l-.6719.4482c-.7979,3.1362-1.5439,4.7046-2.2412,4.7046h-11.2012v-.2241l.6719-.896c.8457-.6968,3.1611-3.3105,6.9453-7.8413,5.377-5.3267,8.0654-11.6743,8.0654-19.043-1.9922-4.9287-5.3525-7.3931-10.082-7.3931h-.6719c-3.0371,0-6.0996,1.1948-9.1855,3.5845-1.2451,0-2.291,2.2402-3.1367,6.7212,0,2.8374.8965,4.2563,2.6885,4.2563h.4482c.6963,0,1.4434-.2241,2.2402-.6719,2.6387-5.2275,4.8789-7.8413,6.7207-7.8413h.8965c1.4434,0,2.6387,1.3442,3.585,4.0327v1.5684c0,3.0371-2.0918,7.2939-6.2734,12.77-2.5889,3.1865-4.083,5.1279-4.4805,5.8247-2.291,2.2905-4.083,4.3066-5.377,6.0488v1.5684c0,2.6885.2988,4.0327.8965,4.0327h22.627l.4482-.2241c.1494-3.3853.2246-5.4761.2246-6.2729,0-3.4351-.374-5.1528-1.1211-5.1528Z" style="fill:#54555a; stroke-width:0px;"/><path d="M205.2314,36.7417c-1.3447-2.7876-4.1826-10.3301-8.5137-22.6274-1.8428-8.0151-3.4854-12.5708-4.9287-13.6665h-.2236c-.3496.2988-.7227.4482-1.1211.4482-3.1865,0-5.0527,2.3149-5.6006,6.9448-4.4805,13.6421-8.0654,23.3501-10.7539,29.125l-3.3604.896v1.7925c0,.7969.2246,1.4688.6719,2.0161,4.1318.1494,6.8203.2241,8.0654.2241,3.585,0,5.377-.4482,5.377-1.3442v-.4482c0-2.0405-1.4932-3.2354-4.4805-3.5845v-.4482c1.3437-5.0781,2.166-7.6172,2.4639-7.6172h11.874c.249.0503.9951,2.0669,2.2402,6.0493,0,.3486-.0742,1.1704-.2236,2.4644v.2241c-2.5391,0-3.8086.373-3.8086,1.1201v2.9121l.2236.4482c3.833.1494,6.8203.2241,8.9619.2241h2.4639c2.3398,0,3.7588-.3735,4.2568-1.1201v-.4482c0-1.8916-1.1943-3.0864-3.584-3.5845ZM193.1328,23.9717h-8.9609c2.9873-7.2686,4.4805-11.8237,4.4805-13.666h.2246c.2979,1.5435.5967,2.6636.8955,3.3604,2.041,5.1284,3.1611,8.4888,3.3604,10.0815v.2241Z" style="fill:#54555a; stroke-width:0px;"/></g></g></svg>